<svg width="66" height="13" viewBox="0 0 66 13" fill="none" xmlns="http://www.w3.org/2000/svg">
<path d="M7.875 8.29688H9.82812C9.76562 9.04167 9.55729 9.70573 9.20312 10.2891C8.84896 10.8672 8.35156 11.3229 7.71094 11.6562C7.07031 11.9896 6.29167 12.1562 5.375 12.1562C4.67188 12.1562 4.03906 12.0312 3.47656 11.7812C2.91406 11.526 2.43229 11.1667 2.03125 10.7031C1.63021 10.2344 1.32292 9.66927 1.10938 9.00781C0.901042 8.34635 0.796875 7.60677 0.796875 6.78906V5.84375C0.796875 5.02604 0.903646 4.28646 1.11719 3.625C1.33594 2.96354 1.64844 2.39844 2.05469 1.92969C2.46094 1.45573 2.94792 1.09375 3.51562 0.84375C4.08854 0.59375 4.73177 0.46875 5.44531 0.46875C6.35156 0.46875 7.11719 0.635417 7.74219 0.96875C8.36719 1.30208 8.85156 1.76302 9.19531 2.35156C9.54427 2.9401 9.75781 3.61458 9.83594 4.375H7.88281C7.83073 3.88542 7.71615 3.46615 7.53906 3.11719C7.36719 2.76823 7.11198 2.5026 6.77344 2.32031C6.4349 2.13281 5.99219 2.03906 5.44531 2.03906C4.9974 2.03906 4.60677 2.1224 4.27344 2.28906C3.9401 2.45573 3.66146 2.70052 3.4375 3.02344C3.21354 3.34635 3.04427 3.74479 2.92969 4.21875C2.82031 4.6875 2.76562 5.22396 2.76562 5.82812V6.78906C2.76562 7.36198 2.8151 7.88281 2.91406 8.35156C3.01823 8.8151 3.17448 9.21354 3.38281 9.54688C3.59635 9.88021 3.86719 10.138 4.19531 10.3203C4.52344 10.5026 4.91667 10.5938 5.375 10.5938C5.93229 10.5938 6.38281 10.5052 6.72656 10.3281C7.07552 10.151 7.33854 9.89323 7.51562 9.55469C7.69792 9.21094 7.81771 8.79167 7.875 8.29688ZM11.3825 7.86719V7.6875C11.3825 7.07812 11.471 6.51302 11.6481 5.99219C11.8252 5.46615 12.0804 5.01042 12.4137 4.625C12.7523 4.23438 13.1637 3.93229 13.6481 3.71875C14.1377 3.5 14.6898 3.39062 15.3044 3.39062C15.9242 3.39062 16.4762 3.5 16.9606 3.71875C17.4502 3.93229 17.8643 4.23438 18.2028 4.625C18.5414 5.01042 18.7992 5.46615 18.9762 5.99219C19.1533 6.51302 19.2419 7.07812 19.2419 7.6875V7.86719C19.2419 8.47656 19.1533 9.04167 18.9762 9.5625C18.7992 10.0833 18.5414 10.5391 18.2028 10.9297C17.8643 11.3151 17.4528 11.6172 16.9684 11.8359C16.4841 12.0495 15.9346 12.1562 15.32 12.1562C14.7002 12.1562 14.1455 12.0495 13.6559 11.8359C13.1716 11.6172 12.7601 11.3151 12.4216 10.9297C12.083 10.5391 11.8252 10.0833 11.6481 9.5625C11.471 9.04167 11.3825 8.47656 11.3825 7.86719ZM13.2653 7.6875V7.86719C13.2653 8.2474 13.3044 8.60677 13.3825 8.94531C13.4606 9.28385 13.583 9.58073 13.7497 9.83594C13.9164 10.0911 14.1299 10.2917 14.3903 10.4375C14.6507 10.5833 14.9606 10.6562 15.32 10.6562C15.669 10.6562 15.971 10.5833 16.2262 10.4375C16.4867 10.2917 16.7002 10.0911 16.8669 9.83594C17.0335 9.58073 17.1559 9.28385 17.2341 8.94531C17.3174 8.60677 17.3591 8.2474 17.3591 7.86719V7.6875C17.3591 7.3125 17.3174 6.95833 17.2341 6.625C17.1559 6.28646 17.0309 5.98698 16.8591 5.72656C16.6924 5.46615 16.4789 5.26302 16.2184 5.11719C15.9632 4.96615 15.6585 4.89062 15.3044 4.89062C14.9502 4.89062 14.6429 4.96615 14.3825 5.11719C14.1273 5.26302 13.9164 5.46615 13.7497 5.72656C13.583 5.98698 13.4606 6.28646 13.3825 6.625C13.3044 6.95833 13.2653 7.3125 13.2653 7.6875ZM23.0072 5.35156V12H21.1244V3.54688H22.8978L23.0072 5.35156ZM22.6712 7.46094L22.0619 7.45312C22.0671 6.85417 22.1504 6.30469 22.3119 5.80469C22.4785 5.30469 22.7077 4.875 22.9994 4.51562C23.2962 4.15625 23.6504 3.88021 24.0619 3.6875C24.4733 3.48958 24.9317 3.39062 25.4369 3.39062C25.8431 3.39062 26.2103 3.44792 26.5384 3.5625C26.8718 3.67188 27.1556 3.85156 27.39 4.10156C27.6296 4.35156 27.8119 4.67708 27.9369 5.07812C28.0619 5.47396 28.1244 5.96094 28.1244 6.53906V12H26.2337V6.53125C26.2337 6.125 26.1739 5.80469 26.0541 5.57031C25.9395 5.33073 25.7702 5.16146 25.5462 5.0625C25.3275 4.95833 25.0541 4.90625 24.7259 4.90625C24.403 4.90625 24.114 4.97396 23.8587 5.10938C23.6035 5.24479 23.3874 5.42969 23.2103 5.66406C23.0384 5.89844 22.9056 6.16927 22.8119 6.47656C22.7181 6.78385 22.6712 7.11198 22.6712 7.46094ZM34.2412 3.54688V4.92188H29.4756V3.54688H34.2412ZM30.8506 1.47656H32.7334V9.66406C32.7334 9.92448 32.7699 10.125 32.8428 10.2656C32.9209 10.401 33.0277 10.4922 33.1631 10.5391C33.2985 10.5859 33.4574 10.6094 33.6397 10.6094C33.7699 10.6094 33.8949 10.6016 34.0147 10.5859C34.1345 10.5703 34.2308 10.5547 34.3037 10.5391L34.3116 11.9766C34.1553 12.0234 33.973 12.0651 33.7647 12.1016C33.5616 12.138 33.3272 12.1562 33.0616 12.1562C32.6293 12.1562 32.2465 12.0807 31.9131 11.9297C31.5798 11.7734 31.3194 11.5208 31.1319 11.1719C30.9444 10.8229 30.8506 10.3594 30.8506 9.78125V1.47656ZM40.78 10.3047V6.27344C40.78 5.97135 40.7253 5.71094 40.6159 5.49219C40.5066 5.27344 40.3399 5.10417 40.1159 4.98438C39.8972 4.86458 39.6211 4.80469 39.2878 4.80469C38.9805 4.80469 38.7149 4.85677 38.4909 4.96094C38.267 5.0651 38.0925 5.20573 37.9675 5.38281C37.8425 5.5599 37.78 5.76042 37.78 5.98438H35.905C35.905 5.65104 35.9857 5.32812 36.1472 5.01562C36.3086 4.70312 36.543 4.42448 36.8503 4.17969C37.1576 3.9349 37.5248 3.74219 37.9519 3.60156C38.379 3.46094 38.8581 3.39062 39.3894 3.39062C40.0248 3.39062 40.5873 3.4974 41.0769 3.71094C41.5717 3.92448 41.9597 4.2474 42.2409 4.67969C42.5274 5.10677 42.6706 5.64323 42.6706 6.28906V10.0469C42.6706 10.4323 42.6967 10.7786 42.7487 11.0859C42.806 11.388 42.8868 11.651 42.9909 11.875V12H41.0612C40.9727 11.7969 40.9024 11.5391 40.8503 11.2266C40.8034 10.9089 40.78 10.6016 40.78 10.3047ZM41.0534 6.85938L41.0691 8.02344H39.7175C39.3685 8.02344 39.0612 8.05729 38.7956 8.125C38.53 8.1875 38.3086 8.28125 38.1316 8.40625C37.9545 8.53125 37.8217 8.68229 37.7331 8.85938C37.6446 9.03646 37.6003 9.23698 37.6003 9.46094C37.6003 9.6849 37.6524 9.89062 37.7566 10.0781C37.8607 10.2604 38.0118 10.4036 38.2097 10.5078C38.4128 10.612 38.6576 10.6641 38.9441 10.6641C39.3295 10.6641 39.6654 10.5859 39.9519 10.4297C40.2435 10.2682 40.4727 10.0729 40.6394 9.84375C40.806 9.60938 40.8946 9.38802 40.905 9.17969L41.5144 10.0156C41.4519 10.2292 41.3451 10.4583 41.1941 10.7031C41.043 10.9479 40.8451 11.1823 40.6003 11.4062C40.3607 11.625 40.0717 11.8047 39.7331 11.9453C39.3998 12.0859 39.0144 12.1562 38.5769 12.1562C38.0248 12.1562 37.5326 12.0469 37.1003 11.8281C36.668 11.6042 36.3295 11.3047 36.0847 10.9297C35.8399 10.5495 35.7175 10.1198 35.7175 9.64062C35.7175 9.19271 35.8008 8.79688 35.9675 8.45312C36.1394 8.10417 36.3894 7.8125 36.7175 7.57812C37.0508 7.34375 37.4571 7.16667 37.9362 7.04688C38.4154 6.92188 38.9623 6.85938 39.5769 6.85938H41.0534ZM48.4125 10.6562C48.7198 10.6562 48.9958 10.5964 49.2406 10.4766C49.4906 10.3516 49.6911 10.1797 49.8422 9.96094C49.9984 9.74219 50.0844 9.48958 50.1 9.20312H51.8734C51.863 9.75 51.7016 10.2474 51.3891 10.6953C51.0766 11.1432 50.6625 11.5 50.1469 11.7656C49.6312 12.026 49.0609 12.1562 48.4359 12.1562C47.7901 12.1562 47.2276 12.0469 46.7484 11.8281C46.2693 11.6042 45.8708 11.2969 45.5531 10.9062C45.2354 10.5156 44.9958 10.0651 44.8344 9.55469C44.6781 9.04427 44.6 8.4974 44.6 7.91406V7.64062C44.6 7.05729 44.6781 6.51042 44.8344 6C44.9958 5.48438 45.2354 5.03125 45.5531 4.64062C45.8708 4.25 46.2693 3.94531 46.7484 3.72656C47.2276 3.5026 47.7875 3.39062 48.4281 3.39062C49.1052 3.39062 49.699 3.52604 50.2094 3.79688C50.7198 4.0625 51.1208 4.4349 51.4125 4.91406C51.7094 5.38802 51.863 5.9401 51.8734 6.57031H50.1C50.0844 6.25781 50.0062 5.97656 49.8656 5.72656C49.7302 5.47135 49.5375 5.26823 49.2875 5.11719C49.0427 4.96615 48.7484 4.89062 48.4047 4.89062C48.0245 4.89062 47.7094 4.96875 47.4594 5.125C47.2094 5.27604 47.0141 5.48438 46.8734 5.75C46.7328 6.01042 46.6312 6.30469 46.5687 6.63281C46.5115 6.95573 46.4828 7.29167 46.4828 7.64062V7.91406C46.4828 8.26302 46.5115 8.60156 46.5687 8.92969C46.626 9.25781 46.725 9.55208 46.8656 9.8125C47.0115 10.0677 47.2094 10.2734 47.4594 10.4297C47.7094 10.5807 48.0271 10.6562 48.4125 10.6562ZM57.5137 3.54688V4.92188H52.7481V3.54688H57.5137ZM54.1231 1.47656H56.0059V9.66406C56.0059 9.92448 56.0424 10.125 56.1153 10.2656C56.1934 10.401 56.3002 10.4922 56.4356 10.5391C56.571 10.5859 56.7299 10.6094 56.9122 10.6094C57.0424 10.6094 57.1674 10.6016 57.2872 10.5859C57.407 10.5703 57.5033 10.5547 57.5762 10.5391L57.5841 11.9766C57.4278 12.0234 57.2455 12.0651 57.0372 12.1016C56.8341 12.138 56.5997 12.1562 56.3341 12.1562C55.9018 12.1562 55.519 12.0807 55.1856 11.9297C54.8523 11.7734 54.5919 11.5208 54.4044 11.1719C54.2169 10.8229 54.1231 10.3594 54.1231 9.78125V1.47656ZM64.0291 9.71094C64.0291 9.52344 63.9822 9.35417 63.8884 9.20312C63.7947 9.04688 63.615 8.90625 63.3494 8.78125C63.089 8.65625 62.7035 8.54167 62.1931 8.4375C61.7452 8.33854 61.3338 8.22135 60.9588 8.08594C60.589 7.94531 60.2713 7.77604 60.0056 7.57812C59.74 7.38021 59.5343 7.14583 59.3884 6.875C59.2426 6.60417 59.1697 6.29167 59.1697 5.9375C59.1697 5.59375 59.2452 5.26823 59.3963 4.96094C59.5473 4.65365 59.7634 4.38281 60.0447 4.14844C60.3259 3.91406 60.6671 3.72917 61.0681 3.59375C61.4744 3.45833 61.9275 3.39062 62.4275 3.39062C63.1358 3.39062 63.7426 3.51042 64.2478 3.75C64.7582 3.98438 65.1489 4.30469 65.4197 4.71094C65.6905 5.11198 65.8259 5.5651 65.8259 6.07031H63.9431C63.9431 5.84635 63.8858 5.63802 63.7713 5.44531C63.6619 5.2474 63.4952 5.08854 63.2713 4.96875C63.0473 4.84375 62.766 4.78125 62.4275 4.78125C62.1046 4.78125 61.8364 4.83333 61.6228 4.9375C61.4145 5.03646 61.2582 5.16667 61.1541 5.32812C61.0551 5.48958 61.0056 5.66667 61.0056 5.85938C61.0056 6 61.0317 6.1276 61.0838 6.24219C61.141 6.35156 61.2348 6.45312 61.365 6.54688C61.4952 6.63542 61.6723 6.71875 61.8963 6.79688C62.1254 6.875 62.4119 6.95052 62.7556 7.02344C63.4015 7.15885 63.9561 7.33333 64.4197 7.54688C64.8884 7.75521 65.2478 8.02604 65.4978 8.35938C65.7478 8.6875 65.8728 9.10417 65.8728 9.60938C65.8728 9.98438 65.7921 10.3281 65.6306 10.6406C65.4744 10.9479 65.2452 11.2161 64.9431 11.4453C64.641 11.6693 64.2791 11.8438 63.8572 11.9688C63.4405 12.0938 62.9718 12.1562 62.4509 12.1562C61.6853 12.1562 61.0369 12.0208 60.5056 11.75C59.9744 11.474 59.5707 11.1224 59.2947 10.6953C59.0239 10.263 58.8884 9.8151 58.8884 9.35156H60.7088C60.7296 9.70052 60.8259 9.97917 60.9978 10.1875C61.1749 10.3906 61.3936 10.5391 61.6541 10.6328C61.9197 10.7214 62.1931 10.7656 62.4744 10.7656C62.8129 10.7656 63.0968 10.7214 63.3259 10.6328C63.5551 10.5391 63.7296 10.4141 63.8494 10.2578C63.9692 10.0964 64.0291 9.91406 64.0291 9.71094Z" fill="#2E2F42"/>
</svg>
