<svg width="64" height="14" viewBox="0 0 64 14" fill="none" xmlns="http://www.w3.org/2000/svg">
<path d="M4.47656 8.75781H1.51562V7.20312H4.47656C4.99219 7.20312 5.40885 7.11979 5.72656 6.95312C6.04427 6.78646 6.27604 6.55729 6.42188 6.26562C6.57292 5.96875 6.64844 5.63021 6.64844 5.25C6.64844 4.89062 6.57292 4.55469 6.42188 4.24219C6.27604 3.92448 6.04427 3.66927 5.72656 3.47656C5.40885 3.28385 4.99219 3.1875 4.47656 3.1875H2.11719V13H0.15625V1.625H4.47656C5.35677 1.625 6.10417 1.78125 6.71875 2.09375C7.33854 2.40104 7.8099 2.82812 8.13281 3.375C8.45573 3.91667 8.61719 4.53646 8.61719 5.23438C8.61719 5.96875 8.45573 6.59896 8.13281 7.125C7.8099 7.65104 7.33854 8.05469 6.71875 8.33594C6.10417 8.61719 5.35677 8.75781 4.47656 8.75781ZM10.0387 8.86719V8.6875C10.0387 8.07812 10.1273 7.51302 10.3044 6.99219C10.4815 6.46615 10.7367 6.01042 11.07 5.625C11.4085 5.23438 11.82 4.93229 12.3044 4.71875C12.794 4.5 13.346 4.39062 13.9606 4.39062C14.5804 4.39062 15.1325 4.5 15.6169 4.71875C16.1065 4.93229 16.5205 5.23438 16.8591 5.625C17.1976 6.01042 17.4554 6.46615 17.6325 6.99219C17.8096 7.51302 17.8981 8.07812 17.8981 8.6875V8.86719C17.8981 9.47656 17.8096 10.0417 17.6325 10.5625C17.4554 11.0833 17.1976 11.5391 16.8591 11.9297C16.5205 12.3151 16.1091 12.6172 15.6247 12.8359C15.1403 13.0495 14.5908 13.1562 13.9762 13.1562C13.3565 13.1562 12.8018 13.0495 12.3122 12.8359C11.8278 12.6172 11.4164 12.3151 11.0778 11.9297C10.7393 11.5391 10.4815 11.0833 10.3044 10.5625C10.1273 10.0417 10.0387 9.47656 10.0387 8.86719ZM11.9216 8.6875V8.86719C11.9216 9.2474 11.9606 9.60677 12.0387 9.94531C12.1169 10.2839 12.2393 10.5807 12.4059 10.8359C12.5726 11.0911 12.7861 11.2917 13.0466 11.4375C13.307 11.5833 13.6169 11.6562 13.9762 11.6562C14.3252 11.6562 14.6273 11.5833 14.8825 11.4375C15.1429 11.2917 15.3565 11.0911 15.5231 10.8359C15.6898 10.5807 15.8122 10.2839 15.8903 9.94531C15.9736 9.60677 16.0153 9.2474 16.0153 8.86719V8.6875C16.0153 8.3125 15.9736 7.95833 15.8903 7.625C15.8122 7.28646 15.6872 6.98698 15.5153 6.72656C15.3486 6.46615 15.1351 6.26302 14.8747 6.11719C14.6195 5.96615 14.3148 5.89062 13.9606 5.89062C13.6065 5.89062 13.2992 5.96615 13.0387 6.11719C12.7835 6.26302 12.5726 6.46615 12.4059 6.72656C12.2393 6.98698 12.1169 7.28646 12.0387 7.625C11.9606 7.95833 11.9216 8.3125 11.9216 8.6875ZM21.6869 6.15625V13H19.8041V4.54688H21.6009L21.6869 6.15625ZM24.2728 4.49219L24.2572 6.24219C24.1426 6.22135 24.0176 6.20573 23.8822 6.19531C23.752 6.1849 23.6218 6.17969 23.4916 6.17969C23.1686 6.17969 22.8848 6.22656 22.64 6.32031C22.3952 6.40885 22.1895 6.53906 22.0228 6.71094C21.8614 6.8776 21.7364 7.08073 21.6478 7.32031C21.5593 7.5599 21.5072 7.82812 21.4916 8.125L21.0619 8.15625C21.0619 7.625 21.114 7.13281 21.2181 6.67969C21.3223 6.22656 21.4785 5.82812 21.6869 5.48438C21.9004 5.14062 22.166 4.8724 22.4837 4.67969C22.8067 4.48698 23.1791 4.39062 23.6009 4.39062C23.7155 4.39062 23.8379 4.40104 23.9681 4.42188C24.1035 4.44271 24.2051 4.46615 24.2728 4.49219ZM30.0381 4.54688V5.92188H25.2725V4.54688H30.0381ZM26.6475 2.47656H28.5303V10.6641C28.5303 10.9245 28.5668 11.125 28.6397 11.2656C28.7178 11.401 28.8246 11.4922 28.96 11.5391C29.0954 11.5859 29.2543 11.6094 29.4366 11.6094C29.5668 11.6094 29.6918 11.6016 29.8116 11.5859C29.9314 11.5703 30.0277 11.5547 30.1006 11.5391L30.1084 12.9766C29.9522 13.0234 29.7699 13.0651 29.5616 13.1016C29.3584 13.138 29.1241 13.1562 28.8584 13.1562C28.4261 13.1562 28.0433 13.0807 27.71 12.9297C27.3767 12.7734 27.1162 12.5208 26.9287 12.1719C26.7412 11.8229 26.6475 11.3594 26.6475 10.7812V2.47656ZM34.3581 13H32.4753V3.73438C32.4753 3.10417 32.5925 2.57552 32.8269 2.14844C33.0665 1.71615 33.4076 1.39062 33.8503 1.17188C34.293 0.947917 34.8165 0.835938 35.4206 0.835938C35.6081 0.835938 35.793 0.848958 35.9753 0.875C36.1576 0.895833 36.3347 0.929688 36.5066 0.976562L36.4597 2.42969C36.3555 2.40365 36.2409 2.38542 36.1159 2.375C35.9961 2.36458 35.8659 2.35938 35.7253 2.35938C35.4389 2.35938 35.1915 2.41406 34.9831 2.52344C34.78 2.6276 34.6238 2.78125 34.5144 2.98438C34.4102 3.1875 34.3581 3.4375 34.3581 3.73438V13ZM36.1003 4.54688V5.92188H31.1784V4.54688H36.1003ZM37.4281 8.86719V8.6875C37.4281 8.07812 37.5167 7.51302 37.6937 6.99219C37.8708 6.46615 38.126 6.01042 38.4594 5.625C38.7979 5.23438 39.2094 4.93229 39.6937 4.71875C40.1833 4.5 40.7354 4.39062 41.35 4.39062C41.9698 4.39062 42.5219 4.5 43.0062 4.71875C43.4958 4.93229 43.9099 5.23438 44.2484 5.625C44.587 6.01042 44.8448 6.46615 45.0219 6.99219C45.199 7.51302 45.2875 8.07812 45.2875 8.6875V8.86719C45.2875 9.47656 45.199 10.0417 45.0219 10.5625C44.8448 11.0833 44.587 11.5391 44.2484 11.9297C43.9099 12.3151 43.4984 12.6172 43.0141 12.8359C42.5297 13.0495 41.9802 13.1562 41.3656 13.1562C40.7458 13.1562 40.1911 13.0495 39.7016 12.8359C39.2172 12.6172 38.8057 12.3151 38.4672 11.9297C38.1286 11.5391 37.8708 11.0833 37.6937 10.5625C37.5167 10.0417 37.4281 9.47656 37.4281 8.86719ZM39.3109 8.6875V8.86719C39.3109 9.2474 39.35 9.60677 39.4281 9.94531C39.5062 10.2839 39.6286 10.5807 39.7953 10.8359C39.962 11.0911 40.1755 11.2917 40.4359 11.4375C40.6964 11.5833 41.0062 11.6562 41.3656 11.6562C41.7146 11.6562 42.0167 11.5833 42.2719 11.4375C42.5323 11.2917 42.7458 11.0911 42.9125 10.8359C43.0792 10.5807 43.2016 10.2839 43.2797 9.94531C43.363 9.60677 43.4047 9.2474 43.4047 8.86719V8.6875C43.4047 8.3125 43.363 7.95833 43.2797 7.625C43.2016 7.28646 43.0766 6.98698 42.9047 6.72656C42.738 6.46615 42.5245 6.26302 42.2641 6.11719C42.0089 5.96615 41.7042 5.89062 41.35 5.89062C40.9958 5.89062 40.6885 5.96615 40.4281 6.11719C40.1729 6.26302 39.962 6.46615 39.7953 6.72656C39.6286 6.98698 39.5062 7.28646 39.4281 7.625C39.35 7.95833 39.3109 8.3125 39.3109 8.6875ZM49.2012 1V13H47.3106V1H49.2012ZM53.5994 4.54688V13H51.7088V4.54688H53.5994ZM51.5838 2.32812C51.5838 2.04167 51.6775 1.80469 51.865 1.61719C52.0577 1.42448 52.3233 1.32812 52.6619 1.32812C52.9952 1.32812 53.2582 1.42448 53.4509 1.61719C53.6436 1.80469 53.74 2.04167 53.74 2.32812C53.74 2.60938 53.6436 2.84375 53.4509 3.03125C53.2582 3.21875 52.9952 3.3125 52.6619 3.3125C52.3233 3.3125 52.0577 3.21875 51.865 3.03125C51.6775 2.84375 51.5838 2.60938 51.5838 2.32812ZM55.6225 8.86719V8.6875C55.6225 8.07812 55.711 7.51302 55.8881 6.99219C56.0652 6.46615 56.3204 6.01042 56.6538 5.625C56.9923 5.23438 57.4038 4.93229 57.8881 4.71875C58.3777 4.5 58.9298 4.39062 59.5444 4.39062C60.1642 4.39062 60.7163 4.5 61.2006 4.71875C61.6902 4.93229 62.1043 5.23438 62.4428 5.625C62.7814 6.01042 63.0392 6.46615 63.2163 6.99219C63.3933 7.51302 63.4819 8.07812 63.4819 8.6875V8.86719C63.4819 9.47656 63.3933 10.0417 63.2163 10.5625C63.0392 11.0833 62.7814 11.5391 62.4428 11.9297C62.1043 12.3151 61.6928 12.6172 61.2084 12.8359C60.7241 13.0495 60.1746 13.1562 59.56 13.1562C58.9402 13.1562 58.3855 13.0495 57.8959 12.8359C57.4116 12.6172 57.0001 12.3151 56.6616 11.9297C56.323 11.5391 56.0652 11.0833 55.8881 10.5625C55.711 10.0417 55.6225 9.47656 55.6225 8.86719ZM57.5053 8.6875V8.86719C57.5053 9.2474 57.5444 9.60677 57.6225 9.94531C57.7006 10.2839 57.823 10.5807 57.9897 10.8359C58.1564 11.0911 58.3699 11.2917 58.6303 11.4375C58.8907 11.5833 59.2006 11.6562 59.56 11.6562C59.909 11.6562 60.211 11.5833 60.4663 11.4375C60.7267 11.2917 60.9402 11.0911 61.1069 10.8359C61.2735 10.5807 61.3959 10.2839 61.4741 9.94531C61.5574 9.60677 61.5991 9.2474 61.5991 8.86719V8.6875C61.5991 8.3125 61.5574 7.95833 61.4741 7.625C61.3959 7.28646 61.2709 6.98698 61.0991 6.72656C60.9324 6.46615 60.7189 6.26302 60.4584 6.11719C60.2032 5.96615 59.8985 5.89062 59.5444 5.89062C59.1902 5.89062 58.8829 5.96615 58.6225 6.11719C58.3673 6.26302 58.1564 6.46615 57.9897 6.72656C57.823 6.98698 57.7006 7.28646 57.6225 7.625C57.5444 7.95833 57.5053 8.3125 57.5053 8.6875Z" fill="#2E2F42"/>
</svg>
