<svg width="48" height="13" viewBox="0 0 48 13" fill="none" xmlns="http://www.w3.org/2000/svg">
<path d="M7.14062 9.07031C7.14062 8.83594 7.10417 8.6276 7.03125 8.44531C6.96354 8.26302 6.84115 8.09635 6.66406 7.94531C6.48698 7.79427 6.23698 7.64844 5.91406 7.50781C5.59635 7.36198 5.1901 7.21354 4.69531 7.0625C4.15365 6.89583 3.65365 6.71094 3.19531 6.50781C2.74219 6.29948 2.34635 6.0599 2.00781 5.78906C1.66927 5.51302 1.40625 5.19792 1.21875 4.84375C1.03125 4.48438 0.9375 4.07031 0.9375 3.60156C0.9375 3.13802 1.03385 2.71615 1.22656 2.33594C1.42448 1.95573 1.70312 1.6276 2.0625 1.35156C2.42708 1.07031 2.85677 0.854167 3.35156 0.703125C3.84635 0.546875 4.39323 0.46875 4.99219 0.46875C5.83594 0.46875 6.5625 0.625 7.17188 0.9375C7.78646 1.25 8.25781 1.66927 8.58594 2.19531C8.91927 2.72135 9.08594 3.30208 9.08594 3.9375H7.14062C7.14062 3.5625 7.0599 3.23177 6.89844 2.94531C6.74219 2.65365 6.5026 2.42448 6.17969 2.25781C5.86198 2.09115 5.45833 2.00781 4.96875 2.00781C4.50521 2.00781 4.11979 2.07812 3.8125 2.21875C3.50521 2.35938 3.27604 2.54948 3.125 2.78906C2.97396 3.02865 2.89844 3.29948 2.89844 3.60156C2.89844 3.8151 2.94792 4.01042 3.04688 4.1875C3.14583 4.35938 3.29688 4.52083 3.5 4.67188C3.70312 4.81771 3.95833 4.95573 4.26562 5.08594C4.57292 5.21615 4.9349 5.34115 5.35156 5.46094C5.98177 5.64844 6.53125 5.85677 7 6.08594C7.46875 6.3099 7.85938 6.5651 8.17188 6.85156C8.48438 7.13802 8.71875 7.46354 8.875 7.82812C9.03125 8.1875 9.10938 8.59635 9.10938 9.05469C9.10938 9.53385 9.01302 9.96615 8.82031 10.3516C8.6276 10.7318 8.35156 11.0573 7.99219 11.3281C7.63802 11.5938 7.21094 11.7995 6.71094 11.9453C6.21615 12.0859 5.66406 12.1562 5.05469 12.1562C4.50781 12.1562 3.96875 12.0833 3.4375 11.9375C2.91146 11.7917 2.43229 11.5703 2 11.2734C1.56771 10.9714 1.22396 10.5964 0.96875 10.1484C0.713542 9.69531 0.585938 9.16667 0.585938 8.5625H2.54688C2.54688 8.93229 2.60938 9.2474 2.73438 9.50781C2.86458 9.76823 3.04427 9.98177 3.27344 10.1484C3.5026 10.3099 3.76823 10.4297 4.07031 10.5078C4.3776 10.5859 4.70573 10.625 5.05469 10.625C5.51302 10.625 5.89583 10.5599 6.20312 10.4297C6.51562 10.2995 6.75 10.1172 6.90625 9.88281C7.0625 9.64844 7.14062 9.3776 7.14062 9.07031ZM14.8512 3.54688V4.92188H10.0856V3.54688H14.8512ZM11.4606 1.47656H13.3434V9.66406C13.3434 9.92448 13.3799 10.125 13.4528 10.2656C13.5309 10.401 13.6377 10.4922 13.7731 10.5391C13.9085 10.5859 14.0674 10.6094 14.2497 10.6094C14.3799 10.6094 14.5049 10.6016 14.6247 10.5859C14.7445 10.5703 14.8408 10.5547 14.9137 10.5391L14.9216 11.9766C14.7653 12.0234 14.583 12.0651 14.3747 12.1016C14.1716 12.138 13.9372 12.1562 13.6716 12.1562C13.2393 12.1562 12.8565 12.0807 12.5231 11.9297C12.1898 11.7734 11.9294 11.5208 11.7419 11.1719C11.5544 10.8229 11.4606 10.3594 11.4606 9.78125V1.47656ZM21.7103 10.0078V3.54688H23.6009V12H21.8197L21.7103 10.0078ZM21.9759 8.25L22.6088 8.23438C22.6088 8.80208 22.5463 9.32552 22.4213 9.80469C22.2963 10.2786 22.1035 10.6927 21.8431 11.0469C21.5827 11.3958 21.2494 11.6693 20.8431 11.8672C20.4369 12.0599 19.9499 12.1562 19.3822 12.1562C18.9707 12.1562 18.5931 12.0964 18.2494 11.9766C17.9056 11.8568 17.6088 11.6719 17.3588 11.4219C17.114 11.1719 16.9239 10.8464 16.7884 10.4453C16.653 10.0443 16.5853 9.5651 16.5853 9.00781V3.54688H18.4681V9.02344C18.4681 9.33073 18.5046 9.58854 18.5775 9.79688C18.6504 10 18.7494 10.1641 18.8744 10.2891C18.9994 10.4141 19.1452 10.5026 19.3119 10.5547C19.4785 10.6068 19.6556 10.6328 19.8431 10.6328C20.3796 10.6328 20.8015 10.5286 21.1088 10.3203C21.4213 10.1068 21.6426 9.82031 21.7728 9.46094C21.9082 9.10156 21.9759 8.69792 21.9759 8.25ZM31.0069 10.25V0H32.8975V12H31.1866L31.0069 10.25ZM25.5069 7.86719V7.70312C25.5069 7.0625 25.5824 6.47917 25.7334 5.95312C25.8845 5.42188 26.1032 4.96615 26.3897 4.58594C26.6761 4.20052 27.0251 3.90625 27.4366 3.70312C27.848 3.49479 28.3116 3.39062 28.8272 3.39062C29.3376 3.39062 29.7855 3.48958 30.1709 3.6875C30.5564 3.88542 30.8845 4.16927 31.1553 4.53906C31.4261 4.90365 31.6423 5.34115 31.8037 5.85156C31.9652 6.35677 32.0798 6.91927 32.1475 7.53906V8.0625C32.0798 8.66667 31.9652 9.21875 31.8037 9.71875C31.6423 10.2188 31.4261 10.651 31.1553 11.0156C30.8845 11.3802 30.5537 11.6615 30.1631 11.8594C29.7777 12.0573 29.3272 12.1562 28.8116 12.1562C28.3011 12.1562 27.8402 12.0495 27.4287 11.8359C27.0225 11.6224 26.6761 11.3229 26.3897 10.9375C26.1032 10.5521 25.8845 10.099 25.7334 9.57812C25.5824 9.05208 25.5069 8.48177 25.5069 7.86719ZM27.3897 7.70312V7.86719C27.3897 8.2526 27.4235 8.61198 27.4912 8.94531C27.5642 9.27865 27.6761 9.57292 27.8272 9.82812C27.9782 10.0781 28.1735 10.276 28.4131 10.4219C28.6579 10.5625 28.9496 10.6328 29.2881 10.6328C29.7152 10.6328 30.0668 10.5391 30.3428 10.3516C30.6189 10.1641 30.835 9.91146 30.9912 9.59375C31.1527 9.27083 31.2621 8.91146 31.3194 8.51562V7.10156C31.2881 6.79427 31.223 6.50781 31.1241 6.24219C31.0303 5.97656 30.9027 5.74479 30.7412 5.54688C30.5798 5.34375 30.3793 5.1875 30.1397 5.07812C29.9053 4.96354 29.6267 4.90625 29.3037 4.90625C28.96 4.90625 28.6683 4.97917 28.4287 5.125C28.1892 5.27083 27.9912 5.47135 27.835 5.72656C27.684 5.98177 27.572 6.27865 27.4991 6.61719C27.4261 6.95573 27.3897 7.31771 27.3897 7.70312ZM37.2019 3.54688V12H35.3112V3.54688H37.2019ZM35.1862 1.32812C35.1862 1.04167 35.28 0.804688 35.4675 0.617188C35.6602 0.424479 35.9258 0.328125 36.2644 0.328125C36.5977 0.328125 36.8607 0.424479 37.0534 0.617188C37.2461 0.804688 37.3425 1.04167 37.3425 1.32812C37.3425 1.60938 37.2461 1.84375 37.0534 2.03125C36.8607 2.21875 36.5977 2.3125 36.2644 2.3125C35.9258 2.3125 35.6602 2.21875 35.4675 2.03125C35.28 1.84375 35.1862 1.60938 35.1862 1.32812ZM39.225 7.86719V7.6875C39.225 7.07812 39.3135 6.51302 39.4906 5.99219C39.6677 5.46615 39.9229 5.01042 40.2562 4.625C40.5948 4.23438 41.0062 3.93229 41.4906 3.71875C41.9802 3.5 42.5323 3.39062 43.1469 3.39062C43.7667 3.39062 44.3187 3.5 44.8031 3.71875C45.2927 3.93229 45.7068 4.23438 46.0453 4.625C46.3839 5.01042 46.6417 5.46615 46.8187 5.99219C46.9958 6.51302 47.0844 7.07812 47.0844 7.6875V7.86719C47.0844 8.47656 46.9958 9.04167 46.8187 9.5625C46.6417 10.0833 46.3839 10.5391 46.0453 10.9297C45.7068 11.3151 45.2953 11.6172 44.8109 11.8359C44.3266 12.0495 43.7771 12.1562 43.1625 12.1562C42.5427 12.1562 41.988 12.0495 41.4984 11.8359C41.0141 11.6172 40.6026 11.3151 40.2641 10.9297C39.9255 10.5391 39.6677 10.0833 39.4906 9.5625C39.3135 9.04167 39.225 8.47656 39.225 7.86719ZM41.1078 7.6875V7.86719C41.1078 8.2474 41.1469 8.60677 41.225 8.94531C41.3031 9.28385 41.4255 9.58073 41.5922 9.83594C41.7589 10.0911 41.9724 10.2917 42.2328 10.4375C42.4932 10.5833 42.8031 10.6562 43.1625 10.6562C43.5115 10.6562 43.8135 10.5833 44.0687 10.4375C44.3292 10.2917 44.5427 10.0911 44.7094 9.83594C44.876 9.58073 44.9984 9.28385 45.0766 8.94531C45.1599 8.60677 45.2016 8.2474 45.2016 7.86719V7.6875C45.2016 7.3125 45.1599 6.95833 45.0766 6.625C44.9984 6.28646 44.8734 5.98698 44.7016 5.72656C44.5349 5.46615 44.3214 5.26302 44.0609 5.11719C43.8057 4.96615 43.501 4.89062 43.1469 4.89062C42.7927 4.89062 42.4854 4.96615 42.225 5.11719C41.9698 5.26302 41.7589 5.46615 41.5922 5.72656C41.4255 5.98698 41.3031 6.28646 41.225 6.625C41.1469 6.95833 41.1078 7.3125 41.1078 7.6875Z" fill="#2E2F42"/>
</svg>
